<mxfile host="app.diagrams.net" modified="2024-03-23T15:05:00.503Z" agent="Mozilla/5.0 (Windows NT 10.0; Win64; x64) AppleWebKit/537.36 (KHTML, like Gecko) Chrome/122.0.0.0 Safari/537.36" version="24.0.7" etag="dBav4y1TmYFJezexwljm" type="github">
  <diagram name="Page-1" id="jqye0dv2BXUtDn7iUmpK">
    <mxGraphModel>
      <root>
        <mxCell id="0" />
        <mxCell id="1" parent="0" />
      </root>
    </mxGraphModel>
  </diagram>
</mxfile>
